<svg xmlns="http://www.w3.org/2000/svg" version="1.1" width="200px" height="200px" style="shape-rendering:geometricPrecision; text-rendering:geometricPrecision; image-rendering:optimizeQuality; fill-rule:evenodd; clip-rule:evenodd" xmlns:xlink="http://www.w3.org/1999/xlink">
<g><path style="opacity:1" fill="#e7bd5c" d="M 131.5,19.5 C 131.334,26.175 131.5,32.8417 132,39.5C 133.122,41.4068 133.955,43.4068 134.5,45.5C 131.117,41.9008 128.951,37.5674 128,32.5C 126.539,27.2836 127.705,22.9503 131.5,19.5 Z"/></g>
<g><path style="opacity:0.862" fill="#b1802c" d="M 67.5,24.5 C 64.3128,26.3438 62.3128,29.0105 61.5,32.5C 57.417,35.0908 55.917,38.7575 57,43.5C 56.9339,49.5634 59.6005,53.8967 65,56.5C 66.0086,58.0249 66.5086,59.6916 66.5,61.5C 62.8284,62.0447 63.1617,62.3781 67.5,62.5C 66.6857,64.2726 65.3524,64.7726 63.5,64C 61.5494,62.2658 60.5494,60.0991 60.5,57.5C 59.1779,57.33 58.0113,57.6634 57,58.5C 55.8111,56.7669 54.6444,55.1002 53.5,53.5C 51.7425,43.5898 52.5758,33.9231 56,24.5C 58.9183,21.3879 62.4183,20.7213 66.5,22.5C 67.2975,22.9569 67.6309,23.6236 67.5,24.5 Z"/></g>
<g><path style="opacity:0.947" fill="#ca8f2a" d="M 132.5,18.5 C 131.833,18.5 131.5,18.8333 131.5,19.5C 127.705,22.9503 126.539,27.2836 128,32.5C 128.951,37.5674 131.117,41.9008 134.5,45.5C 134.631,46.2389 134.464,46.9056 134,47.5C 130.872,44.5264 127.372,42.1931 123.5,40.5C 121.197,37.3033 118.197,36.6367 114.5,38.5C 117.511,34.6618 119.678,30.3285 121,25.5C 123.413,23.5906 125.247,21.2573 126.5,18.5C 128.643,17.2463 130.643,17.2463 132.5,18.5 Z"/></g>
<g><path style="opacity:1" fill="#614020" d="M 73.5,45.5 C 72.7703,47.045 71.437,47.8784 69.5,48C 69.8333,48.3333 70.1667,48.6667 70.5,49C 68.6874,48.9536 67.0207,49.1203 65.5,49.5C 66.7287,50.2811 68.062,50.7811 69.5,51C 70.7899,53.292 72.4565,55.292 74.5,57C 73.0161,57.6622 71.6828,58.4955 70.5,59.5C 65.1086,54.7238 61.7753,48.7238 60.5,41.5C 65.2901,41.5844 69.6234,42.9178 73.5,45.5 Z"/></g>
<g><path style="opacity:1" fill="#9d661f" d="M 79.5,54.5 C 79.5,54.8333 79.5,55.1667 79.5,55.5C 78.0277,53.8825 77.361,51.8825 77.5,49.5C 77.5507,47.9002 77.8841,46.4002 78.5,45C 75.7541,42.3542 74.5874,39.1876 75,35.5C 76.497,39.1649 78.497,42.4983 81,45.5C 81.0782,48.5696 80.5782,51.5696 79.5,54.5 Z"/></g>
<g><path style="opacity:1" fill="#956a2e" d="M 61.5,32.5 C 61.4142,33.4959 61.7476,34.3292 62.5,35C 67.1778,36.676 71.0111,39.5094 74,43.5C 74.6917,44.4368 74.525,45.1034 73.5,45.5C 69.6234,42.9178 65.2901,41.5844 60.5,41.5C 61.7753,48.7238 65.1086,54.7238 70.5,59.5C 70.5,59.8333 70.5,60.1667 70.5,60.5C 70.0269,61.9063 69.0269,62.573 67.5,62.5C 63.1617,62.3781 62.8284,62.0447 66.5,61.5C 66.5086,59.6916 66.0086,58.0249 65,56.5C 59.6005,53.8967 56.9339,49.5634 57,43.5C 55.917,38.7575 57.417,35.0908 61.5,32.5 Z"/></g>
<g><path style="opacity:1" fill="#bf9033" d="M 67.5,24.5 C 72.2979,28.7967 76.9645,33.2967 81.5,38C 88.826,37.6445 96.1593,38.1445 103.5,39.5C 96.9881,40.1666 90.3214,40.8333 83.5,41.5C 84.7113,42.8745 85.7113,44.3745 86.5,46C 84.7497,49.3462 82.4164,52.1795 79.5,54.5C 80.5782,51.5696 81.0782,48.5696 81,45.5C 78.497,42.4983 76.497,39.1649 75,35.5C 74.5874,39.1876 75.7541,42.3542 78.5,45C 77.8841,46.4002 77.5507,47.9002 77.5,49.5C 77.361,51.8825 78.0277,53.8825 79.5,55.5C 77.2725,58.4495 74.2725,60.1162 70.5,60.5C 70.5,60.1667 70.5,59.8333 70.5,59.5C 71.6828,58.4955 73.0161,57.6622 74.5,57C 72.4565,55.292 70.7899,53.292 69.5,51C 68.062,50.7811 66.7287,50.2811 65.5,49.5C 67.0207,49.1203 68.6874,48.9536 70.5,49C 70.1667,48.6667 69.8333,48.3333 69.5,48C 71.437,47.8784 72.7703,47.045 73.5,45.5C 74.525,45.1034 74.6917,44.4368 74,43.5C 71.0111,39.5094 67.1778,36.676 62.5,35C 61.7476,34.3292 61.4142,33.4959 61.5,32.5C 62.3128,29.0105 64.3128,26.3438 67.5,24.5 Z"/></g>
<g><path style="opacity:1" fill="#f2c767" d="M 137.5,48.5 C 143.2,50.1002 148.033,53.1002 152,57.5C 155.726,64.515 158.559,71.8483 160.5,79.5C 157.278,74.3549 153.445,69.6882 149,65.5C 147.5,65.6667 146.667,66.5 146.5,68C 149.622,71.6828 150.289,75.8494 148.5,80.5C 147.167,80.5 146.5,81.1667 146.5,82.5C 144.565,81.8505 142.565,81.5172 140.5,81.5C 142.645,79.9232 142.312,78.2565 139.5,76.5C 139.863,75.8165 140.196,75.1499 140.5,74.5C 143.332,72.5935 144.166,69.9268 143,66.5C 142.292,65.6195 141.458,64.9528 140.5,64.5C 139.791,63.596 138.791,63.2627 137.5,63.5C 136.198,61.3101 134.531,59.3101 132.5,57.5C 131.675,56.6143 130.675,56.281 129.5,56.5C 129.5,59.1667 129.5,61.8333 129.5,64.5C 123.853,60.6278 122.02,55.2945 124,48.5C 124.725,46.842 125.892,46.342 127.5,47C 131.928,51.8069 136.428,56.3069 141,60.5C 139.53,56.803 137.697,53.1363 135.5,49.5C 135.957,48.7025 136.624,48.3691 137.5,48.5 Z"/></g>
<g><path style="opacity:0.61" fill="#b59329" d="M 132.5,18.5 C 132.852,26.9554 134.019,35.2888 136,43.5C 136.465,44.9308 137.299,46.0975 138.5,47C 148.768,48.5999 155.268,54.4332 158,64.5C 159.743,69.7168 160.91,75.0501 161.5,80.5C 160.833,80.5 160.5,80.1667 160.5,79.5C 158.559,71.8483 155.726,64.515 152,57.5C 148.033,53.1002 143.2,50.1002 137.5,48.5C 136.833,47.1667 135.833,46.1667 134.5,45.5C 133.955,43.4068 133.122,41.4068 132,39.5C 131.5,32.8417 131.334,26.175 131.5,19.5C 131.5,18.8333 131.833,18.5 132.5,18.5 Z"/></g>
<g><path style="opacity:1" fill="#dfaf44" d="M 111.5,55.5 C 113.292,58.5459 114.292,61.8793 114.5,65.5C 111.998,63.8304 109.998,61.6637 108.5,59C 105.078,56.8095 102.411,57.4762 100.5,61C 100.759,62.2613 101.426,63.2613 102.5,64C 101.833,64.3333 101.167,64.6667 100.5,65C 101.748,66.3997 102.748,67.8997 103.5,69.5C 102.209,69.2627 101.209,69.596 100.5,70.5C 98.0462,71.2271 95.7128,72.2271 93.5,73.5C 92.375,74.3478 92.375,75.3478 93.5,76.5C 92.5,76.5 91.5,76.5 90.5,76.5C 90.762,75.0222 90.4287,73.6888 89.5,72.5C 88.8076,73.0253 88.3076,73.6919 88,74.5C 85.2121,71.5503 83.0454,68.217 81.5,64.5C 85.5552,61.9147 85.2219,59.9147 80.5,58.5C 83.1463,51.9513 87.1463,50.9513 92.5,55.5C 93.6194,52.4041 93.2861,49.4041 91.5,46.5C 91.7093,45.914 92.0426,45.414 92.5,45C 95.8333,44.3333 99.1667,44.3333 102.5,45C 104.029,48.0288 106.362,50.1955 109.5,51.5C 110.362,52.7658 111.029,54.0992 111.5,55.5 Z"/></g>
<g><path style="opacity:1" fill="#d8a12f" d="M 123.5,40.5 C 119.511,40.4887 117.511,42.4887 117.5,46.5C 119.779,52.6706 121.446,59.004 122.5,65.5C 120.265,62.9825 118.765,59.9825 118,56.5C 117.667,57.5 117.333,58.5 117,59.5C 115.008,58.3353 113.175,57.002 111.5,55.5C 111.029,54.0992 110.362,52.7658 109.5,51.5C 106.362,50.1955 104.029,48.0288 102.5,45C 99.1667,44.3333 95.8333,44.3333 92.5,45C 92.0426,45.414 91.7093,45.914 91.5,46.5C 93.2861,49.4041 93.6194,52.4041 92.5,55.5C 87.1463,50.9513 83.1463,51.9513 80.5,58.5C 79.1634,59.3149 78.1634,60.4815 77.5,62C 69.8311,63.8359 65.4977,68.6693 64.5,76.5C 63.2101,77.0577 62.3768,78.0577 62,79.5C 61.6082,83.5276 61.1082,87.5276 60.5,91.5C 58.8031,89.6948 57.9698,87.3615 58,84.5C 57.6174,85.056 57.1174,85.3893 56.5,85.5C 56.9651,78.2062 55.1318,77.2062 51,82.5C 50.8091,80.2922 50.3091,78.2922 49.5,76.5C 49.6458,72.4809 49.9791,68.4809 50.5,64.5C 51.6988,60.9014 52.6988,57.2347 53.5,53.5C 54.6444,55.1002 55.8111,56.7669 57,58.5C 58.0113,57.6634 59.1779,57.33 60.5,57.5C 60.5494,60.0991 61.5494,62.2658 63.5,64C 65.3524,64.7726 66.6857,64.2726 67.5,62.5C 69.0269,62.573 70.0269,61.9063 70.5,60.5C 74.2725,60.1162 77.2725,58.4495 79.5,55.5C 79.5,55.1667 79.5,54.8333 79.5,54.5C 82.4164,52.1795 84.7497,49.3462 86.5,46C 85.7113,44.3745 84.7113,42.8745 83.5,41.5C 90.3214,40.8333 96.9881,40.1666 103.5,39.5C 107.119,38.7564 110.785,38.423 114.5,38.5C 118.197,36.6367 121.197,37.3033 123.5,40.5 Z"/></g>
<g><path style="opacity:1" fill="#d3b264" d="M 137.5,63.5 C 133.487,63.5196 132.82,64.853 135.5,67.5C 134.975,68.1924 134.308,68.6924 133.5,69C 134.252,69.6708 134.586,70.5041 134.5,71.5C 131.732,70.0491 130.065,67.7158 129.5,64.5C 129.5,61.8333 129.5,59.1667 129.5,56.5C 130.675,56.281 131.675,56.6143 132.5,57.5C 134.531,59.3101 136.198,61.3101 137.5,63.5 Z"/></g>
<g><path style="opacity:1" fill="#deb861" d="M 114.5,65.5 C 113.962,67.1172 113.629,68.7839 113.5,70.5C 112.167,71.1667 110.833,71.8333 109.5,72.5C 107.784,70.9752 105.784,69.9752 103.5,69.5C 102.748,67.8997 101.748,66.3997 100.5,65C 101.167,64.6667 101.833,64.3333 102.5,64C 101.426,63.2613 100.759,62.2613 100.5,61C 102.411,57.4762 105.078,56.8095 108.5,59C 109.998,61.6637 111.998,63.8304 114.5,65.5 Z"/></g>
<g><path style="opacity:1" fill="#c49535" d="M 111.5,55.5 C 113.175,57.002 115.008,58.3353 117,59.5C 117.333,58.5 117.667,57.5 118,56.5C 118.765,59.9825 120.265,62.9825 122.5,65.5C 122.66,67.1992 122.494,68.8659 122,70.5C 119.618,68.6113 117.118,66.9447 114.5,65.5C 114.292,61.8793 113.292,58.5459 111.5,55.5 Z"/></g>
<g><path style="opacity:1" fill="#deb450" d="M 80.5,58.5 C 85.2219,59.9147 85.5552,61.9147 81.5,64.5C 83.0454,68.217 85.2121,71.5503 88,74.5C 88.3076,73.6919 88.8076,73.0253 89.5,72.5C 90.4287,73.6888 90.762,75.0222 90.5,76.5C 91.5,76.5 92.5,76.5 93.5,76.5C 98.6478,81.9539 104.648,82.9539 111.5,79.5C 112.637,80.7888 113.97,81.7888 115.5,82.5C 113.76,84.8045 112.76,87.4712 112.5,90.5C 108.795,88.8174 104.795,87.984 100.5,88C 97.5833,86.4725 94.5833,85.1392 91.5,84C 89.4605,81.3033 87.4605,78.6367 85.5,76C 78.5236,76.1639 71.5236,76.3305 64.5,76.5C 65.4977,68.6693 69.8311,63.8359 77.5,62C 78.1634,60.4815 79.1634,59.3149 80.5,58.5 Z"/></g>
<g><path style="opacity:1" fill="#9f671e" d="M 56.5,62.5 C 59.7204,62.942 62.0537,64.6087 63.5,67.5C 61.8847,70.4495 59.8847,73.1162 57.5,75.5C 56.0542,74.8291 55.3875,73.6624 55.5,72C 55.7307,68.8382 56.064,65.6716 56.5,62.5 Z"/></g>
<g><path style="opacity:0.556" fill="#b39126" d="M 50.5,64.5 C 49.9791,68.4809 49.6458,72.4809 49.5,76.5C 44.9526,92.4643 40.6192,108.464 36.5,124.5C 36.3347,120.818 36.5014,117.152 37,113.5C 42.634,97.9269 46.634,81.9269 49,65.5C 49.3826,64.944 49.8826,64.6107 50.5,64.5 Z"/></g>
<g><path style="opacity:1" fill="#e9b955" d="M 123.5,40.5 C 127.372,42.1931 130.872,44.5264 134,47.5C 134.464,46.9056 134.631,46.2389 134.5,45.5C 135.833,46.1667 136.833,47.1667 137.5,48.5C 136.624,48.3691 135.957,48.7025 135.5,49.5C 137.697,53.1363 139.53,56.803 141,60.5C 136.428,56.3069 131.928,51.8069 127.5,47C 125.892,46.342 124.725,46.842 124,48.5C 122.02,55.2945 123.853,60.6278 129.5,64.5C 130.065,67.7158 131.732,70.0491 134.5,71.5C 135.167,71.8333 135.833,72.1667 136.5,72.5C 137.514,73.6737 138.847,74.3404 140.5,74.5C 140.196,75.1499 139.863,75.8165 139.5,76.5C 142.312,78.2565 142.645,79.9232 140.5,81.5C 138.801,81.6602 137.134,81.4935 135.5,81C 127.274,69.8911 121.941,71.0578 119.5,84.5C 118.712,83.2299 117.712,82.2299 116.5,81.5C 117.081,77.2504 116.081,73.5837 113.5,70.5C 113.629,68.7839 113.962,67.1172 114.5,65.5C 117.118,66.9447 119.618,68.6113 122,70.5C 122.494,68.8659 122.66,67.1992 122.5,65.5C 121.446,59.004 119.779,52.6706 117.5,46.5C 117.511,42.4887 119.511,40.4887 123.5,40.5 Z"/></g>
<g><path style="opacity:1" fill="#d0bc83" d="M 140.5,64.5 C 141.146,66.1561 141.813,67.8228 142.5,69.5C 142.167,70.1667 141.833,70.8333 141.5,71.5C 140.824,70.3984 140.158,69.3984 139.5,68.5C 138.194,67.5326 137.527,66.1993 137.5,64.5C 138.5,64.5 139.5,64.5 140.5,64.5 Z"/></g>
<g><path style="opacity:1" fill="#2c2611" d="M 137.5,63.5 C 138.791,63.2627 139.791,63.596 140.5,64.5C 139.5,64.5 138.5,64.5 137.5,64.5C 137.527,66.1993 138.194,67.5326 139.5,68.5C 139.912,70.9726 138.912,72.3059 136.5,72.5C 135.833,72.1667 135.167,71.8333 134.5,71.5C 134.586,70.5041 134.252,69.6708 133.5,69C 134.308,68.6924 134.975,68.1924 135.5,67.5C 132.82,64.853 133.487,63.5196 137.5,63.5 Z"/></g>
<g><path style="opacity:1" fill="#28230e" d="M 100.5,70.5 C 101.167,70.5 101.5,70.8333 101.5,71.5C 102.259,73.4358 103.259,75.2691 104.5,77C 104.361,78.301 103.695,79.1344 102.5,79.5C 98.4698,79.1507 95.4698,77.1507 93.5,73.5C 95.7128,72.2271 98.0462,71.2271 100.5,70.5 Z"/></g>
<g><path style="opacity:1" fill="#564824" d="M 100.5,70.5 C 101.209,69.596 102.209,69.2627 103.5,69.5C 105.784,69.9752 107.784,70.9752 109.5,72.5C 113.476,74.0776 114.143,76.411 111.5,79.5C 104.648,82.9539 98.6478,81.9539 93.5,76.5C 92.375,75.3478 92.375,74.3478 93.5,73.5C 95.4698,77.1507 98.4698,79.1507 102.5,79.5C 103.946,80.6129 105.613,80.7796 107.5,80C 109.536,74.2261 107.536,71.3928 101.5,71.5C 101.5,70.8333 101.167,70.5 100.5,70.5 Z"/></g>
<g><path style="opacity:1" fill="#c08f32" d="M 113.5,70.5 C 116.081,73.5837 117.081,77.2504 116.5,81.5C 116.5,82.1667 116.167,82.5 115.5,82.5C 113.97,81.7888 112.637,80.7888 111.5,79.5C 114.143,76.411 113.476,74.0776 109.5,72.5C 110.833,71.8333 112.167,71.1667 113.5,70.5 Z"/></g>
<g><path style="opacity:1" fill="#7b6a3f" d="M 140.5,64.5 C 141.458,64.9528 142.292,65.6195 143,66.5C 144.166,69.9268 143.332,72.5935 140.5,74.5C 138.847,74.3404 137.514,73.6737 136.5,72.5C 138.912,72.3059 139.912,70.9726 139.5,68.5C 140.158,69.3984 140.824,70.3984 141.5,71.5C 141.833,70.8333 142.167,70.1667 142.5,69.5C 141.813,67.8228 141.146,66.1561 140.5,64.5 Z"/></g>
<g><path style="opacity:1" fill="#dbc990" d="M 101.5,71.5 C 107.536,71.3928 109.536,74.2261 107.5,80C 105.613,80.7796 103.946,80.6129 102.5,79.5C 103.695,79.1344 104.361,78.301 104.5,77C 103.259,75.2691 102.259,73.4358 101.5,71.5 Z"/></g>
<g><path style="opacity:1" fill="#edc56d" d="M 140.5,81.5 C 142.565,81.5172 144.565,81.8505 146.5,82.5C 145.833,83.1667 145.167,83.8333 144.5,84.5C 139.879,84.4058 135.546,85.4058 131.5,87.5C 129.545,86.6765 127.545,86.5099 125.5,87C 122.02,90.0771 119.02,93.5771 116.5,97.5C 115.5,97.5 114.5,97.5 113.5,97.5C 113.007,95.1944 112.674,92.861 112.5,90.5C 112.76,87.4712 113.76,84.8045 115.5,82.5C 116.167,82.5 116.5,82.1667 116.5,81.5C 117.712,82.2299 118.712,83.2299 119.5,84.5C 121.941,71.0578 127.274,69.8911 135.5,81C 137.134,81.4935 138.801,81.6602 140.5,81.5 Z"/></g>
<g><path style="opacity:0.914" fill="#f6ebb4" d="M 160.5,79.5 C 160.5,80.1667 160.833,80.5 161.5,80.5C 165.869,90.8746 166.535,101.541 163.5,112.5C 163.254,109.707 163.087,106.707 163,103.5C 162.105,105.804 161.271,108.138 160.5,110.5C 159.5,109.167 158.5,109.167 157.5,110.5C 157.167,110 156.833,109.5 156.5,109C 158.356,103.981 159.189,98.8142 159,93.5C 158.71,91.9559 158.044,90.6226 157,89.5C 156.502,91.5269 156.669,93.5269 157.5,95.5C 157.132,96.91 156.299,97.91 155,98.5C 154.667,95.1667 154.333,91.8333 154,88.5C 152.629,85.6291 150.463,83.6291 147.5,82.5C 147.863,81.8165 148.196,81.1499 148.5,80.5C 150.289,75.8494 149.622,71.6828 146.5,68C 146.667,66.5 147.5,65.6667 149,65.5C 153.445,69.6882 157.278,74.3549 160.5,79.5 Z"/></g>
<g><path style="opacity:1" fill="#eacc81" d="M 112.5,90.5 C 112.674,92.861 113.007,95.1944 113.5,97.5C 113.63,101.99 112.963,105.99 111.5,109.5C 111.5,110.167 111.167,110.5 110.5,110.5C 104.501,113.907 104.501,117.073 110.5,120C 112.9,120.186 115.234,120.686 117.5,121.5C 117.291,122.086 116.957,122.586 116.5,123C 117.938,123.219 119.271,123.719 120.5,124.5C 120.291,125.086 119.957,125.586 119.5,126C 121.936,126.206 123.602,127.373 124.5,129.5C 121.444,131.045 118.278,132.378 115,133.5C 111.837,132.75 108.67,132.084 105.5,131.5C 104.933,123.366 100.599,120.366 92.5,122.5C 92.1878,119.112 93.5211,116.612 96.5,115C 94.3964,114.209 93.063,112.709 92.5,110.5C 85.769,108.968 80.1023,105.635 75.5,100.5C 72.3462,98.9741 69.0128,98.3075 65.5,98.5C 64.1875,106.513 67.5208,110.513 75.5,110.5C 77.7722,115.132 80.1055,119.798 82.5,124.5C 86.424,127.379 90.2573,130.379 94,133.5C 94.6708,132.748 95.5041,132.414 96.5,132.5C 95.0101,134.28 93.0101,134.946 90.5,134.5C 88.5336,133.559 86.5336,132.559 84.5,131.5C 84.2635,132.247 83.9302,133.08 83.5,134C 86.3307,136.001 88.9974,138.167 91.5,140.5C 89.8357,141.999 87.8357,142.999 85.5,143.5C 81.4867,140.993 77.1534,139.326 72.5,138.5C 72.7373,137.209 72.404,136.209 71.5,135.5C 71.5858,134.504 71.2524,133.671 70.5,133C 71.1667,132.667 71.8333,132.333 72.5,132C 66.849,127.563 67.1824,126.73 73.5,129.5C 73.8333,129.167 74.1667,128.833 74.5,128.5C 67.2019,118.737 62.2019,107.903 59.5,96C 59.6052,94.4085 59.9386,92.9085 60.5,91.5C 61.1082,87.5276 61.6082,83.5276 62,79.5C 62.3768,78.0577 63.2101,77.0577 64.5,76.5C 71.5236,76.3305 78.5236,76.1639 85.5,76C 87.4605,78.6367 89.4605,81.3033 91.5,84C 94.5833,85.1392 97.5833,86.4725 100.5,88C 104.795,87.984 108.795,88.8174 112.5,90.5 Z"/></g>
<g><path style="opacity:0.988" fill="#d7a93b" d="M 49.5,76.5 C 50.3091,78.2922 50.8091,80.2922 51,82.5C 55.1318,77.2062 56.9651,78.2062 56.5,85.5C 53.0656,96.3483 54.399,106.682 60.5,116.5C 58.6707,117.282 57.1707,116.616 56,114.5C 53.0653,109.508 50.0653,104.508 47,99.5C 46.7424,103.904 47.2424,108.238 48.5,112.5C 47.5,112.5 46.5,112.5 45.5,112.5C 45.8134,115.247 45.48,117.914 44.5,120.5C 43.914,120.291 43.414,119.957 43,119.5C 42.5,121 42,122.5 41.5,124C 42.8561,125.567 43.5228,127.4 43.5,129.5C 45.4835,129.383 47.1502,130.05 48.5,131.5C 49.1667,130.833 49.8333,130.167 50.5,129.5C 51.2652,130.612 52.2652,131.279 53.5,131.5C 56.6092,135.397 59.9426,139.064 63.5,142.5C 63.44,143.043 63.1067,143.376 62.5,143.5C 59.2944,140.898 55.6277,139.398 51.5,139C 49.2519,137.086 46.7519,135.586 44,134.5C 42.3576,134.978 41.1909,135.978 40.5,137.5C 38.8356,136.051 38.0023,134.051 38,131.5C 37.2303,132.598 36.397,132.598 35.5,131.5C 35.1984,128.941 35.5318,126.607 36.5,124.5C 40.6192,108.464 44.9526,92.4643 49.5,76.5 Z"/></g>
<g><path style="opacity:1" fill="#ce9a2e" d="M 60.5,91.5 C 59.9386,92.9085 59.6052,94.4085 59.5,96C 62.2019,107.903 67.2019,118.737 74.5,128.5C 74.1667,128.833 73.8333,129.167 73.5,129.5C 67.1824,126.73 66.849,127.563 72.5,132C 71.8333,132.333 71.1667,132.667 70.5,133C 71.2524,133.671 71.5858,134.504 71.5,135.5C 70.791,136.404 69.791,136.737 68.5,136.5C 68.3433,137.873 68.51,139.207 69,140.5C 75.4368,145.956 74.9368,147.289 67.5,144.5C 64.4226,141.192 62.7559,137.525 62.5,133.5C 63.4776,133.977 64.3109,134.643 65,135.5C 67.1,132.835 66.6,130.668 63.5,129C 58.748,126.252 54.5813,122.752 51,118.5C 50.3333,119.167 50.3333,119.833 51,120.5C 52.353,121.685 53.5197,123.019 54.5,124.5C 53.8333,125.167 53.1667,125.833 52.5,126.5C 53.3094,128.071 53.6427,129.738 53.5,131.5C 52.2652,131.279 51.2652,130.612 50.5,129.5C 49.8333,130.167 49.1667,130.833 48.5,131.5C 47.1502,130.05 45.4835,129.383 43.5,129.5C 43.5228,127.4 42.8561,125.567 41.5,124C 42,122.5 42.5,121 43,119.5C 43.414,119.957 43.914,120.291 44.5,120.5C 45.48,117.914 45.8134,115.247 45.5,112.5C 46.5,112.5 47.5,112.5 48.5,112.5C 47.2424,108.238 46.7424,103.904 47,99.5C 50.0653,104.508 53.0653,109.508 56,114.5C 57.1707,116.616 58.6707,117.282 60.5,116.5C 54.399,106.682 53.0656,96.3483 56.5,85.5C 57.1174,85.3893 57.6174,85.056 58,84.5C 57.9698,87.3615 58.8031,89.6948 60.5,91.5 Z"/></g>
<g><path style="opacity:1" fill="#241e0a" d="M 144.5,84.5 C 147.732,84.7717 149.732,86.4384 150.5,89.5C 150.752,92.3198 150.252,94.9865 149,97.5C 146.674,98.8132 145.341,100.813 145,103.5C 144.517,102.552 144.351,101.552 144.5,100.5C 139.949,101.342 136.283,100.008 133.5,96.5C 130.766,93.9038 130.1,90.9038 131.5,87.5C 135.546,85.4058 139.879,84.4058 144.5,84.5 Z"/></g>
<g><path style="opacity:1" fill="#d2bc79" d="M 131.5,87.5 C 130.1,90.9038 130.766,93.9038 133.5,96.5C 133.586,97.4959 133.252,98.3292 132.5,99C 133.578,99.6739 134.245,100.674 134.5,102C 134.06,104.597 133.393,107.097 132.5,109.5C 131.609,110.11 130.609,110.443 129.5,110.5C 128.417,110.461 127.417,110.127 126.5,109.5C 123.589,104.923 120.256,100.923 116.5,97.5C 119.02,93.5771 122.02,90.0771 125.5,87C 127.545,86.5099 129.545,86.6765 131.5,87.5 Z"/></g>
<g><path style="opacity:1" fill="#72623d" d="M 150.5,89.5 C 152.789,93.805 153.622,98.4716 153,103.5C 152.623,104.942 151.79,105.942 150.5,106.5C 144.2,105.949 138.2,106.949 132.5,109.5C 133.393,107.097 134.06,104.597 134.5,102C 134.245,100.674 133.578,99.6739 132.5,99C 133.252,98.3292 133.586,97.4959 133.5,96.5C 136.283,100.008 139.949,101.342 144.5,100.5C 144.351,101.552 144.517,102.552 145,103.5C 145.341,100.813 146.674,98.8132 149,97.5C 150.252,94.9865 150.752,92.3198 150.5,89.5 Z"/></g>
<g><path style="opacity:1" fill="#d2ab52" d="M 113.5,97.5 C 114.5,97.5 115.5,97.5 116.5,97.5C 120.256,100.923 123.589,104.923 126.5,109.5C 127.417,110.127 128.417,110.461 129.5,110.5C 128.833,111.167 128.167,111.833 127.5,112.5C 122.113,111.388 116.78,110.388 111.5,109.5C 112.963,105.99 113.63,101.99 113.5,97.5 Z"/></g>
<g><path style="opacity:1" fill="#f4d58f" d="M 105.5,131.5 C 102.57,132.299 99.5701,132.632 96.5,132.5C 95.5041,132.414 94.6708,132.748 94,133.5C 90.2573,130.379 86.424,127.379 82.5,124.5C 80.1055,119.798 77.7722,115.132 75.5,110.5C 67.5208,110.513 64.1875,106.513 65.5,98.5C 69.0128,98.3075 72.3462,98.9741 75.5,100.5C 80.1023,105.635 85.769,108.968 92.5,110.5C 93.063,112.709 94.3964,114.209 96.5,115C 93.5211,116.612 92.1878,119.112 92.5,122.5C 100.599,120.366 104.933,123.366 105.5,131.5 Z"/></g>
<g><path style="opacity:1" fill="#2b250f" d="M 150.5,106.5 C 150.5,106.833 150.5,107.167 150.5,107.5C 142.712,108.631 135.046,110.298 127.5,112.5C 128.167,111.833 128.833,111.167 129.5,110.5C 130.609,110.443 131.609,110.11 132.5,109.5C 138.2,106.949 144.2,105.949 150.5,106.5 Z"/></g>
<g><path style="opacity:1" fill="#f6df99" d="M 148.5,80.5 C 148.196,81.1499 147.863,81.8165 147.5,82.5C 150.463,83.6291 152.629,85.6291 154,88.5C 154.333,91.8333 154.667,95.1667 155,98.5C 156.299,97.91 157.132,96.91 157.5,95.5C 156.669,93.5269 156.502,91.5269 157,89.5C 158.044,90.6226 158.71,91.9559 159,93.5C 159.189,98.8142 158.356,103.981 156.5,109C 156.833,109.5 157.167,110 157.5,110.5C 158.5,109.167 159.5,109.167 160.5,110.5C 161.271,108.138 162.105,105.804 163,103.5C 163.087,106.707 163.254,109.707 163.5,112.5C 163.611,113.117 163.944,113.617 164.5,114C 162.398,117.507 160.398,121.007 158.5,124.5C 157.5,125.5 156.5,126.5 155.5,127.5C 154.833,128.833 153.833,129.833 152.5,130.5C 152.339,127.472 153.006,124.639 154.5,122C 153.711,120.374 152.711,118.874 151.5,117.5C 150.534,115.604 150.201,113.604 150.5,111.5C 150.5,110.167 150.5,108.833 150.5,107.5C 150.5,107.167 150.5,106.833 150.5,106.5C 151.79,105.942 152.623,104.942 153,103.5C 153.622,98.4716 152.789,93.805 150.5,89.5C 149.732,86.4384 147.732,84.7717 144.5,84.5C 145.167,83.8333 145.833,83.1667 146.5,82.5C 146.5,81.1667 147.167,80.5 148.5,80.5 Z"/></g>
<g><path style="opacity:1" fill="#73633d" d="M 150.5,107.5 C 150.5,108.833 150.5,110.167 150.5,111.5C 149.5,111.833 148.833,112.5 148.5,113.5C 146.833,114.833 145.167,116.167 143.5,117.5C 136.36,115.923 129.027,115.09 121.5,115C 120.263,114.768 119.263,114.268 118.5,113.5C 121.713,113.81 124.713,113.477 127.5,112.5C 135.046,110.298 142.712,108.631 150.5,107.5 Z"/></g>
<g><path style="opacity:1" fill="#e8c672" d="M 110.5,110.5 C 110.5,110.833 110.5,111.167 110.5,111.5C 110.297,113.39 110.963,114.89 112.5,116C 116.685,116.758 120.685,118.091 124.5,120C 129.167,120.667 133.833,120.667 138.5,120C 140.491,119.626 142.158,118.793 143.5,117.5C 145.167,116.167 146.833,114.833 148.5,113.5C 146.289,121.203 141.955,127.37 135.5,132C 131.438,132.879 127.771,132.046 124.5,129.5C 123.602,127.373 121.936,126.206 119.5,126C 119.957,125.586 120.291,125.086 120.5,124.5C 119.271,123.719 117.938,123.219 116.5,123C 116.957,122.586 117.291,122.086 117.5,121.5C 115.234,120.686 112.9,120.186 110.5,120C 104.501,117.073 104.501,113.907 110.5,110.5 Z"/></g>
<g><path style="opacity:1" fill="#cca853" d="M 110.5,111.5 C 113.115,112.291 115.782,112.957 118.5,113.5C 119.263,114.268 120.263,114.768 121.5,115C 129.027,115.09 136.36,115.923 143.5,117.5C 142.158,118.793 140.491,119.626 138.5,120C 133.833,120.667 129.167,120.667 124.5,120C 120.685,118.091 116.685,116.758 112.5,116C 110.963,114.89 110.297,113.39 110.5,111.5 Z"/></g>
<g><path style="opacity:1" fill="#4a3f21" d="M 111.5,109.5 C 116.78,110.388 122.113,111.388 127.5,112.5C 124.713,113.477 121.713,113.81 118.5,113.5C 115.782,112.957 113.115,112.291 110.5,111.5C 110.5,111.167 110.5,110.833 110.5,110.5C 111.167,110.5 111.5,110.167 111.5,109.5 Z"/></g>
<g><path style="opacity:1" fill="#fad785" d="M 150.5,111.5 C 150.201,113.604 150.534,115.604 151.5,117.5C 152.711,118.874 153.711,120.374 154.5,122C 153.006,124.639 152.339,127.472 152.5,130.5C 147.601,132.563 143.767,135.897 141,140.5C 136.344,142.373 131.51,143.373 126.5,143.5C 119.502,142.667 112.502,141.834 105.5,141C 100.039,139.687 95.0387,137.521 90.5,134.5C 93.0101,134.946 95.0101,134.28 96.5,132.5C 99.5701,132.632 102.57,132.299 105.5,131.5C 108.67,132.084 111.837,132.75 115,133.5C 118.278,132.378 121.444,131.045 124.5,129.5C 127.771,132.046 131.438,132.879 135.5,132C 141.955,127.37 146.289,121.203 148.5,113.5C 148.833,112.5 149.5,111.833 150.5,111.5 Z"/></g>
<g><path style="opacity:1" fill="#b77d23" d="M 67.5,144.5 C 65.9382,144.267 64.6049,143.6 63.5,142.5C 59.9426,139.064 56.6092,135.397 53.5,131.5C 53.6427,129.738 53.3094,128.071 52.5,126.5C 53.1667,125.833 53.8333,125.167 54.5,124.5C 53.5197,123.019 52.353,121.685 51,120.5C 50.3333,119.833 50.3333,119.167 51,118.5C 54.5813,122.752 58.748,126.252 63.5,129C 66.6,130.668 67.1,132.835 65,135.5C 64.3109,134.643 63.4776,133.977 62.5,133.5C 62.7559,137.525 64.4226,141.192 67.5,144.5 Z"/></g>
<g><path style="opacity:0.955" fill="#f0cd77" d="M 158.5,124.5 C 158.719,128.378 159.719,132.044 161.5,135.5C 161.069,136.293 160.735,137.127 160.5,138C 162.288,152.595 164.621,167.095 167.5,181.5C 160.167,181.5 152.833,181.5 145.5,181.5C 146.716,179.52 147.549,177.52 148,175.5C 145.377,171.097 141.543,169.431 136.5,170.5C 136.244,168.063 135.577,165.729 134.5,163.5C 136.053,158.984 136.887,154.318 137,149.5C 141.491,145.921 146.157,142.588 151,139.5C 152.833,135.833 154.667,132.167 156.5,128.5C 156.376,127.893 156.043,127.56 155.5,127.5C 156.5,126.5 157.5,125.5 158.5,124.5 Z"/></g>
<g><path style="opacity:0.959" fill="#d19e30" d="M 35.5,131.5 C 36.397,132.598 37.2303,132.598 38,131.5C 38.0023,134.051 38.8356,136.051 40.5,137.5C 41.7331,143.094 42.5665,148.76 43,154.5C 45.7218,158.652 48.8885,162.319 52.5,165.5C 56.0266,167.272 58.6933,169.938 60.5,173.5C 58.5454,172.677 56.5454,172.51 54.5,173C 52.8037,175.505 50.4703,177.005 47.5,177.5C 46.4756,178.852 45.4756,180.185 44.5,181.5C 40.5,181.5 36.5,181.5 32.5,181.5C 32.4451,166.483 32.9451,151.483 34,136.5C 34.3519,134.753 34.8519,133.086 35.5,131.5 Z"/></g>
<g><path style="opacity:1" fill="#d3aa49" d="M 155.5,127.5 C 156.043,127.56 156.376,127.893 156.5,128.5C 154.667,132.167 152.833,135.833 151,139.5C 146.157,142.588 141.491,145.921 137,149.5C 136.887,154.318 136.053,158.984 134.5,163.5C 135.577,165.729 136.244,168.063 136.5,170.5C 141.543,169.431 145.377,171.097 148,175.5C 147.549,177.52 146.716,179.52 145.5,181.5C 139.5,181.5 133.5,181.5 127.5,181.5C 124.929,181.024 122.929,179.69 121.5,177.5C 121.196,176.85 120.863,176.183 120.5,175.5C 123.785,174.676 127.118,174.176 130.5,174C 130.957,173.586 131.291,173.086 131.5,172.5C 130.811,170.556 130.311,168.556 130,166.5C 128.887,165.289 127.72,165.289 126.5,166.5C 125.614,165.675 125.281,164.675 125.5,163.5C 121.991,163.192 120.324,161.192 120.5,157.5C 119.167,157.5 117.833,157.5 116.5,157.5C 115.395,154.725 114.395,152.225 113.5,150C 109.5,149 105.5,148 101.5,147C 98.5534,144.217 95.22,142.05 91.5,140.5C 88.9974,138.167 86.3307,136.001 83.5,134C 83.9302,133.08 84.2635,132.247 84.5,131.5C 86.5336,132.559 88.5336,133.559 90.5,134.5C 95.0387,137.521 100.039,139.687 105.5,141C 112.502,141.834 119.502,142.667 126.5,143.5C 131.51,143.373 136.344,142.373 141,140.5C 143.767,135.897 147.601,132.563 152.5,130.5C 153.833,129.833 154.833,128.833 155.5,127.5 Z"/></g>
<g><path style="opacity:1" fill="#e0c16e" d="M 63.5,142.5 C 64.6049,143.6 65.9382,144.267 67.5,144.5C 74.9368,147.289 75.4368,145.956 69,140.5C 68.51,139.207 68.3433,137.873 68.5,136.5C 69.791,136.737 70.791,136.404 71.5,135.5C 72.404,136.209 72.7373,137.209 72.5,138.5C 77.1534,139.326 81.4867,140.993 85.5,143.5C 87.8357,142.999 89.8357,141.999 91.5,140.5C 95.22,142.05 98.5534,144.217 101.5,147C 105.5,148 109.5,149 113.5,150C 114.395,152.225 115.395,154.725 116.5,157.5C 117.833,157.5 119.167,157.5 120.5,157.5C 120.324,161.192 121.991,163.192 125.5,163.5C 125.281,164.675 125.614,165.675 126.5,166.5C 127.72,165.289 128.887,165.289 130,166.5C 130.311,168.556 130.811,170.556 131.5,172.5C 131.291,173.086 130.957,173.586 130.5,174C 127.118,174.176 123.785,174.676 120.5,175.5C 120.863,176.183 121.196,176.85 121.5,177.5C 117.74,179.139 114.406,178.472 111.5,175.5C 110.833,175.833 110.167,176.167 109.5,176.5C 105.46,173.806 101.793,170.639 98.5,167C 91.1477,164.663 83.8144,162.33 76.5,160C 72.4727,157.306 69.1393,153.973 66.5,150C 62.8878,148.861 59.5544,147.194 56.5,145C 53.8428,144.825 51.1761,144.992 48.5,145.5C 47.45,152.202 49.45,158.369 54.5,164C 53.5842,164.278 52.9175,164.778 52.5,165.5C 48.8885,162.319 45.7218,158.652 43,154.5C 42.5665,148.76 41.7331,143.094 40.5,137.5C 41.1909,135.978 42.3576,134.978 44,134.5C 46.7519,135.586 49.2519,137.086 51.5,139C 55.6277,139.398 59.2944,140.898 62.5,143.5C 63.1067,143.376 63.44,143.043 63.5,142.5 Z"/></g>
<g><path style="opacity:1" fill="#e7cd7c" d="M 121.5,177.5 C 122.929,179.69 124.929,181.024 127.5,181.5C 113.167,181.5 98.8333,181.5 84.5,181.5C 84.3893,180.883 84.056,180.383 83.5,180C 80.204,179.543 77.0373,178.709 74,177.5C 73.6924,178.308 73.1924,178.975 72.5,179.5C 68.3171,177.674 64.3171,175.674 60.5,173.5C 58.6933,169.938 56.0266,167.272 52.5,165.5C 52.9175,164.778 53.5842,164.278 54.5,164C 49.45,158.369 47.45,152.202 48.5,145.5C 51.1761,144.992 53.8428,144.825 56.5,145C 59.5544,147.194 62.8878,148.861 66.5,150C 69.1393,153.973 72.4727,157.306 76.5,160C 83.8144,162.33 91.1477,164.663 98.5,167C 101.793,170.639 105.46,173.806 109.5,176.5C 110.167,176.167 110.833,175.833 111.5,175.5C 114.406,178.472 117.74,179.139 121.5,177.5 Z"/></g>
<g><path style="opacity:1" fill="#dcba65" d="M 60.5,173.5 C 64.3171,175.674 68.3171,177.674 72.5,179.5C 73.1924,178.975 73.6924,178.308 74,177.5C 77.0373,178.709 80.204,179.543 83.5,180C 84.056,180.383 84.3893,180.883 84.5,181.5C 71.1667,181.5 57.8333,181.5 44.5,181.5C 45.4756,180.185 46.4756,178.852 47.5,177.5C 50.4703,177.005 52.8037,175.505 54.5,173C 56.5454,172.51 58.5454,172.677 60.5,173.5 Z"/></g>
</svg>
