<?xml version="1.0" encoding="UTF-8"?>
<!DOCTYPE svg PUBLIC "-//W3C//DTD SVG 1.1//EN" "http://www.w3.org/Graphics/SVG/1.1/DTD/svg11.dtd">
<svg xmlns="http://www.w3.org/2000/svg" version="1.1" width="128px" height="128px" style="shape-rendering:geometricPrecision; text-rendering:geometricPrecision; image-rendering:optimizeQuality; fill-rule:evenodd; clip-rule:evenodd" xmlns:xlink="http://www.w3.org/1999/xlink">
<g><path style="opacity:0.98" fill="#474747" d="M 49.5,-0.5 C 58.8333,-0.5 68.1667,-0.5 77.5,-0.5C 79.5,0.5 81.5,1.5 83.5,2.5C 70.1532,-0.141066 56.8199,-0.141066 43.5,2.5C 45.5,1.5 47.5,0.5 49.5,-0.5 Z"/></g>
<g><path style="opacity:1" fill="#040404" d="M 83.5,2.5 C 85.2143,3.73838 87.2143,4.40505 89.5,4.5C 94.0683,6.40266 98.4016,8.736 102.5,11.5C 102.5,13.5 103.5,14.5 105.5,14.5C 107.833,16.1667 109.833,18.1667 111.5,20.5C 112.08,22.7488 113.413,24.4154 115.5,25.5C 115.427,27.0269 116.094,28.0269 117.5,28.5C 118.338,28.8417 118.672,29.5084 118.5,30.5C 118.427,32.0269 119.094,33.0269 120.5,33.5C 121.674,34.5137 122.34,35.847 122.5,37.5C 122.259,39.8984 122.926,41.8984 124.5,43.5C 126.324,54.7231 126.991,66.0564 126.5,77.5C 124.926,79.1016 124.259,81.1016 124.5,83.5C 123.262,85.2143 122.595,87.2143 122.5,89.5C 121.358,93.1168 119.692,96.4502 117.5,99.5C 116.167,99.5 115.5,100.167 115.5,101.5C 115.5,101.833 115.5,102.167 115.5,102.5C 114.167,102.5 113.5,103.167 113.5,104.5C 110.833,107.833 107.833,110.833 104.5,113.5C 103.167,113.5 102.5,114.167 102.5,115.5C 102.167,115.5 101.833,115.5 101.5,115.5C 100.167,115.5 99.5,116.167 99.5,117.5C 96.4502,119.692 93.1168,121.358 89.5,122.5C 87.2143,122.595 85.2143,123.262 83.5,124.5C 81.1016,124.259 79.1016,124.926 77.5,126.5C 66.0564,126.991 54.7231,126.324 43.5,124.5C 41.8984,122.926 39.8984,122.259 37.5,122.5C 35.847,122.34 34.5137,121.674 33.5,120.5C 33.0269,119.094 32.0269,118.427 30.5,118.5C 29.5084,118.672 28.8417,118.338 28.5,117.5C 28.0269,116.094 27.0269,115.427 25.5,115.5C 24.4154,113.413 22.7488,112.08 20.5,111.5C 18.1667,109.833 16.1667,107.833 14.5,105.5C 14.5,103.5 13.5,102.5 11.5,102.5C 8.736,98.4016 6.40266,94.0683 4.5,89.5C 4.40505,87.2143 3.73838,85.2143 2.5,83.5C 1.62326,78.3503 0.623264,73.3503 -0.5,68.5C -0.5,63.5 -0.5,58.5 -0.5,53.5C 1.2766,50.4954 2.2766,47.1621 2.5,43.5C 4.07394,41.8984 4.74061,39.8984 4.5,37.5C 4.6596,35.847 5.32627,34.5137 6.5,33.5C 7.90632,33.0269 8.57298,32.0269 8.5,30.5C 8.32842,29.5084 8.66175,28.8417 9.5,28.5C 10.9063,28.0269 11.573,27.0269 11.5,25.5C 13.914,24.0892 15.5806,22.0892 16.5,19.5C 17.1667,18.1667 18.1667,17.1667 19.5,16.5C 22.0892,15.5806 24.0892,13.914 25.5,11.5C 27.0269,11.573 28.0269,10.9063 28.5,9.5C 29.8993,8.11028 31.5659,7.11028 33.5,6.5C 37.3267,6.24842 40.6601,4.91509 43.5,2.5C 56.8199,-0.141066 70.1532,-0.141066 83.5,2.5 Z"/></g>
<g><path style="opacity:0.345" fill="#777777" d="M 83.5,2.5 C 85.8984,2.25939 87.8984,2.92606 89.5,4.5C 87.2143,4.40505 85.2143,3.73838 83.5,2.5 Z"/></g>
<g><path style="opacity:0.882" fill="#474747" d="M 43.5,2.5 C 40.6601,4.91509 37.3267,6.24842 33.5,6.5C 36.3399,4.08491 39.6733,2.75158 43.5,2.5 Z"/></g>
<g><path style="opacity:0.482" fill="#797979" d="M 28.5,9.5 C 28.0269,10.9063 27.0269,11.573 25.5,11.5C 25.9731,10.0937 26.9731,9.42702 28.5,9.5 Z"/></g>
<g><path style="opacity:0.373" fill="#939393" d="M 102.5,11.5 C 103.833,12.1667 104.833,13.1667 105.5,14.5C 103.5,14.5 102.5,13.5 102.5,11.5 Z"/></g>
<g><path style="opacity:0.733" fill="#636363" d="M 25.5,11.5 C 24.0892,13.914 22.0892,15.5806 19.5,16.5C 20.9108,14.086 22.9108,12.4194 25.5,11.5 Z"/></g>
<g><path style="opacity:0.647" fill="#7f7f7f" d="M 111.5,20.5 C 113.587,21.5846 114.92,23.2512 115.5,25.5C 113.413,24.4154 112.08,22.7488 111.5,20.5 Z"/></g>
<g><path style="opacity:0.565" fill="#797979" d="M 16.5,19.5 C 15.5806,22.0892 13.914,24.0892 11.5,25.5C 12.4194,22.9108 14.086,20.9108 16.5,19.5 Z"/></g>
<g><path style="opacity:0.482" fill="#868686" d="M 11.5,25.5 C 11.573,27.0269 10.9063,28.0269 9.5,28.5C 9.42702,26.9731 10.0937,25.9731 11.5,25.5 Z"/></g>
<g><path style="opacity:0.49" fill="#848484" d="M 115.5,25.5 C 116.906,25.9731 117.573,26.9731 117.5,28.5C 116.094,28.0269 115.427,27.0269 115.5,25.5 Z"/></g>
<g><path style="opacity:1" fill="#f0f0f0" d="M 24.5,27.5 C 32.3428,26.1796 40.3428,26.1796 48.5,27.5C 54.5906,36.013 60.924,44.3463 67.5,52.5C 75.139,44.5265 82.8057,36.5265 90.5,28.5C 92.9301,26.429 95.5967,26.0956 98.5,27.5C 89.5,37.5 80.5,47.5 71.5,57.5C 81.3453,71.856 91.6786,85.856 102.5,99.5C 94.855,100.665 87.1883,100.831 79.5,100C 72.3263,90.6646 64.993,81.498 57.5,72.5C 48.6783,81.4892 40.0116,90.6559 31.5,100C 29.1667,100.667 26.8333,100.667 24.5,100C 34.8693,89.2992 44.8693,78.2992 54.5,67C 44.6365,53.6489 34.6365,40.4822 24.5,27.5 Z"/></g>
<g><path style="opacity:0.349" fill="#717171" d="M 8.5,30.5 C 8.57298,32.0269 7.90632,33.0269 6.5,33.5C 6.42702,31.9731 7.09368,30.9731 8.5,30.5 Z"/></g>
<g><path style="opacity:1" fill="#0b0b0b" d="M 34.5,32.5 C 38.2326,31.179 42.0659,31.179 46,32.5C 61.5,53.3333 77,74.1667 92.5,95C 88.7887,95.8253 85.122,95.6586 81.5,94.5C 65.8129,73.765 50.1462,53.0983 34.5,32.5 Z"/></g>
<g><path style="opacity:0.353" fill="#6f6f6f" d="M 118.5,30.5 C 119.906,30.9731 120.573,31.9731 120.5,33.5C 119.094,33.0269 118.427,32.0269 118.5,30.5 Z"/></g>
<g><path style="opacity:0.878" fill="#585858" d="M 4.5,37.5 C 4.74061,39.8984 4.07394,41.8984 2.5,43.5C 2.25939,41.1016 2.92606,39.1016 4.5,37.5 Z"/></g>
<g><path style="opacity:0.886" fill="#575757" d="M 122.5,37.5 C 124.074,39.1016 124.741,41.1016 124.5,43.5C 122.926,41.8984 122.259,39.8984 122.5,37.5 Z"/></g>
<g><path style="opacity:0.553" fill="#757575" d="M 2.5,43.5 C 2.2766,47.1621 1.2766,50.4954 -0.5,53.5C -0.5,52.1667 -0.5,50.8333 -0.5,49.5C 0.5,47.5 1.5,45.5 2.5,43.5 Z"/></g>
<g><path style="opacity:0.98" fill="#484848" d="M 124.5,43.5 C 125.5,45.5 126.5,47.5 127.5,49.5C 127.5,58.8333 127.5,68.1667 127.5,77.5C 127.167,77.5 126.833,77.5 126.5,77.5C 126.991,66.0564 126.324,54.7231 124.5,43.5 Z"/></g>
<g><path style="opacity:0.463" fill="#636363" d="M -0.5,68.5 C 0.623264,73.3503 1.62326,78.3503 2.5,83.5C 1.5,81.5 0.5,79.5 -0.5,77.5C -0.5,74.5 -0.5,71.5 -0.5,68.5 Z"/></g>
<g><path style="opacity:0.518" fill="#6d6d6d" d="M 126.5,77.5 C 126.405,79.7857 125.738,81.7857 124.5,83.5C 124.259,81.1016 124.926,79.1016 126.5,77.5 Z"/></g>
<g><path style="opacity:0.337" fill="#797979" d="M 2.5,83.5 C 3.73838,85.2143 4.40505,87.2143 4.5,89.5C 2.92606,87.8984 2.25939,85.8984 2.5,83.5 Z"/></g>
<g><path style="opacity:0.263" fill="#808080" d="M 124.5,83.5 C 124.741,85.8984 124.074,87.8984 122.5,89.5C 122.595,87.2143 123.262,85.2143 124.5,83.5 Z"/></g>
<g><path style="opacity:0.059" fill="#a2a2a2" d="M 117.5,99.5 C 117.167,100.5 116.5,101.167 115.5,101.5C 115.5,100.167 116.167,99.5 117.5,99.5 Z"/></g>
<g><path style="opacity:0.361" fill="#999999" d="M 11.5,102.5 C 13.5,102.5 14.5,103.5 14.5,105.5C 13.1667,104.833 12.1667,103.833 11.5,102.5 Z"/></g>
<g><path style="opacity:0.027" fill="#a8a8a8" d="M 115.5,102.5 C 115.167,103.5 114.5,104.167 113.5,104.5C 113.5,103.167 114.167,102.5 115.5,102.5 Z"/></g>
<g><path style="opacity:0.635" fill="#828282" d="M 20.5,111.5 C 22.7488,112.08 24.4154,113.413 25.5,115.5C 23.2512,114.92 21.5846,113.587 20.5,111.5 Z"/></g>
<g><path style="opacity:0.027" fill="#acacac" d="M 104.5,113.5 C 104.167,114.5 103.5,115.167 102.5,115.5C 102.5,114.167 103.167,113.5 104.5,113.5 Z"/></g>
<g><path style="opacity:0.475" fill="#848484" d="M 25.5,115.5 C 27.0269,115.427 28.0269,116.094 28.5,117.5C 26.9731,117.573 25.9731,116.906 25.5,115.5 Z"/></g>
<g><path style="opacity:0.055" fill="#a0a0a0" d="M 101.5,115.5 C 101.167,116.5 100.5,117.167 99.5,117.5C 99.5,116.167 100.167,115.5 101.5,115.5 Z"/></g>
<g><path style="opacity:0.341" fill="#717171" d="M 30.5,118.5 C 32.0269,118.427 33.0269,119.094 33.5,120.5C 31.9731,120.573 30.9731,119.906 30.5,118.5 Z"/></g>
<g><path style="opacity:0.878" fill="#585858" d="M 37.5,122.5 C 39.8984,122.259 41.8984,122.926 43.5,124.5C 41.1016,124.741 39.1016,124.074 37.5,122.5 Z"/></g>
<g><path style="opacity:0.259" fill="#818181" d="M 89.5,122.5 C 87.8984,124.074 85.8984,124.741 83.5,124.5C 85.2143,123.262 87.2143,122.595 89.5,122.5 Z"/></g>
<g><path style="opacity:0.506" fill="#6e6e6e" d="M 83.5,124.5 C 81.7857,125.738 79.7857,126.405 77.5,126.5C 79.1016,124.926 81.1016,124.259 83.5,124.5 Z"/></g>
<g><path style="opacity:0.975" fill="#474747" d="M 43.5,124.5 C 54.7231,126.324 66.0564,126.991 77.5,126.5C 77.5,126.833 77.5,127.167 77.5,127.5C 68.1667,127.5 58.8333,127.5 49.5,127.5C 47.5,126.5 45.5,125.5 43.5,124.5 Z"/></g>
</svg>
